<mxfile host="app.diagrams.net" agent="Mozilla/5.0 (Windows NT 10.0; Win64; x64) AppleWebKit/537.36 (KHTML, like Gecko) Chrome/137.0.0.0 Safari/537.36" version="27.0.9">
  <diagram name="Page-1" id="58cdce13-f638-feb5-8d6f-7d28b1aa9fa0">
    <mxGraphModel dx="2684" dy="834" grid="1" gridSize="10" guides="1" tooltips="1" connect="1" arrows="1" fold="0" page="1" pageScale="1" pageWidth="1100" pageHeight="850" background="none" math="0" shadow="0">
      <root>
        <mxCell id="0" />
        <mxCell id="1" parent="0" />
        <mxCell id="2a3bc250acf0617d-8" value="frame" style="shape=umlFrame;whiteSpace=wrap;html=1;rounded=1;shadow=0;comic=0;labelBackgroundColor=none;strokeWidth=1;fontFamily=Verdana;fontSize=12;align=center;" parent="1" vertex="1">
          <mxGeometry x="-170" y="50" width="1390" height="1140" as="geometry" />
        </mxCell>
        <mxCell id="382b91b5511bd0f7-1" value="" style="ellipse;html=1;shape=startState;fillColor=#000000;strokeColor=#ff0000;rounded=1;shadow=0;comic=0;labelBackgroundColor=none;fontFamily=Verdana;fontSize=12;fontColor=#000000;align=center;direction=south;" parent="1" vertex="1">
          <mxGeometry x="-170" y="100" width="30" height="30" as="geometry" />
        </mxCell>
        <mxCell id="382b91b5511bd0f7-6" value="welcome state" style="rounded=1;whiteSpace=wrap;html=1;arcSize=24;fillColor=#ffffc0;strokeColor=#ff0000;shadow=0;comic=0;labelBackgroundColor=none;fontFamily=Verdana;fontSize=12;fontColor=#000000;align=center;" parent="1" vertex="1">
          <mxGeometry x="-80" y="120" width="120" height="60" as="geometry" />
        </mxCell>
        <mxCell id="3cde6dad864a17aa-3" style="edgeStyle=orthogonalEdgeStyle;html=1;exitX=1;exitY=0.5;entryX=0;entryY=0.5;labelBackgroundColor=none;endArrow=open;endSize=8;strokeColor=#ff0000;fontFamily=Verdana;fontSize=12;align=left;exitDx=0;exitDy=0;entryDx=0;entryDy=0;" parent="1" source="382b91b5511bd0f7-7" target="382b91b5511bd0f7-9" edge="1">
          <mxGeometry relative="1" as="geometry" />
        </mxCell>
        <mxCell id="bnfIQaxyl0gTqHExW7aB-7" value="encrypt message" style="edgeLabel;html=1;align=center;verticalAlign=middle;resizable=0;points=[];" parent="3cde6dad864a17aa-3" vertex="1" connectable="0">
          <mxGeometry x="-0.4235" relative="1" as="geometry">
            <mxPoint x="31" as="offset" />
          </mxGeometry>
        </mxCell>
        <mxCell id="382b91b5511bd0f7-7" value="_message and _password&amp;nbsp;&lt;div&gt;in program&lt;/div&gt;" style="rounded=1;whiteSpace=wrap;html=1;arcSize=24;fillColor=#ffffc0;strokeColor=#ff0000;shadow=0;comic=0;labelBackgroundColor=none;fontFamily=Verdana;fontSize=12;fontColor=#000000;align=center;" parent="1" vertex="1">
          <mxGeometry x="250" y="120" width="120" height="60" as="geometry" />
        </mxCell>
        <mxCell id="382b91b5511bd0f7-9" value="encrypt_message and _keys&lt;div&gt;created&lt;/div&gt;" style="rounded=1;whiteSpace=wrap;html=1;arcSize=24;fillColor=#ffffc0;strokeColor=#ff0000;shadow=0;comic=0;labelBackgroundColor=none;fontFamily=Verdana;fontSize=12;fontColor=#000000;align=center;" parent="1" vertex="1">
          <mxGeometry x="516" y="120" width="120" height="60" as="geometry" />
        </mxCell>
        <mxCell id="2a3bc250acf0617d-9" style="edgeStyle=orthogonalEdgeStyle;html=1;labelBackgroundColor=none;endArrow=open;endSize=8;strokeColor=#ff0000;fontFamily=Verdana;fontSize=12;align=left;" parent="1" source="382b91b5511bd0f7-1" target="382b91b5511bd0f7-6" edge="1">
          <mxGeometry relative="1" as="geometry" />
        </mxCell>
        <mxCell id="bnfIQaxyl0gTqHExW7aB-6" value="start" style="edgeLabel;html=1;align=center;verticalAlign=middle;resizable=0;points=[];" parent="2a3bc250acf0617d-9" vertex="1" connectable="0">
          <mxGeometry x="-0.2571" y="2" relative="1" as="geometry">
            <mxPoint as="offset" />
          </mxGeometry>
        </mxCell>
        <mxCell id="2a3bc250acf0617d-10" style="edgeStyle=orthogonalEdgeStyle;html=1;labelBackgroundColor=none;endArrow=open;endSize=8;strokeColor=#ff0000;fontFamily=Verdana;fontSize=12;align=left;entryX=0;entryY=0.5;exitX=1;exitY=0.5;exitDx=0;exitDy=0;" parent="1" source="382b91b5511bd0f7-6" target="382b91b5511bd0f7-7" edge="1">
          <mxGeometry relative="1" as="geometry" />
        </mxCell>
        <mxCell id="bnfIQaxyl0gTqHExW7aB-5" value="user enter message and password" style="edgeLabel;html=1;align=center;verticalAlign=middle;resizable=0;points=[];" parent="2a3bc250acf0617d-10" vertex="1" connectable="0">
          <mxGeometry x="-0.025" y="-3" relative="1" as="geometry">
            <mxPoint as="offset" />
          </mxGeometry>
        </mxCell>
        <mxCell id="bnfIQaxyl0gTqHExW7aB-8" value="" style="ellipse;whiteSpace=wrap;html=1;aspect=fixed;" parent="1" vertex="1">
          <mxGeometry x="485" y="240" width="50" height="50" as="geometry" />
        </mxCell>
        <mxCell id="bnfIQaxyl0gTqHExW7aB-9" style="edgeStyle=elbowEdgeStyle;html=1;labelBackgroundColor=none;endArrow=open;endSize=8;strokeColor=#ff0000;fontFamily=Verdana;fontSize=12;align=left;exitX=0.5;exitY=1;exitDx=0;exitDy=0;entryX=0.5;entryY=0;entryDx=0;entryDy=0;elbow=horizontal;" parent="1" source="382b91b5511bd0f7-9" target="bnfIQaxyl0gTqHExW7aB-8" edge="1">
          <mxGeometry relative="1" as="geometry">
            <mxPoint x="770" y="202.5" as="sourcePoint" />
            <mxPoint x="770" y="327.5" as="targetPoint" />
            <Array as="points">
              <mxPoint x="510" y="210" />
            </Array>
          </mxGeometry>
        </mxCell>
        <mxCell id="bnfIQaxyl0gTqHExW7aB-10" value="user chose file type to hide message&amp;nbsp; in" style="edgeLabel;html=1;align=center;verticalAlign=middle;resizable=0;points=[];" parent="bnfIQaxyl0gTqHExW7aB-9" vertex="1" connectable="0">
          <mxGeometry x="0.275" relative="1" as="geometry">
            <mxPoint y="6" as="offset" />
          </mxGeometry>
        </mxCell>
        <mxCell id="bnfIQaxyl0gTqHExW7aB-13" value="image - .png/.bmp" style="swimlane;whiteSpace=wrap;html=1;rounded=1;shadow=0;comic=0;labelBackgroundColor=none;strokeWidth=1;fontFamily=Verdana;fontSize=12;align=center;" parent="1" vertex="1">
          <mxGeometry x="-110" y="340" width="585" height="250" as="geometry" />
        </mxCell>
        <mxCell id="bnfIQaxyl0gTqHExW7aB-14" value="user upload image/use from library" style="rounded=1;whiteSpace=wrap;html=1;arcSize=24;fillColor=#ffffc0;strokeColor=#ff0000;shadow=0;comic=0;labelBackgroundColor=none;fontFamily=Verdana;fontSize=12;fontColor=#000000;align=center;" parent="bnfIQaxyl0gTqHExW7aB-13" vertex="1">
          <mxGeometry x="90" y="110" width="165" height="60" as="geometry" />
        </mxCell>
        <mxCell id="bnfIQaxyl0gTqHExW7aB-24" value="" style="ellipse;html=1;shape=startState;fillColor=#000000;strokeColor=#ff0000;rounded=1;shadow=0;comic=0;labelBackgroundColor=none;fontFamily=Verdana;fontSize=12;fontColor=#000000;align=center;direction=south;" parent="bnfIQaxyl0gTqHExW7aB-13" vertex="1">
          <mxGeometry x="10" y="70" width="30" height="30" as="geometry" />
        </mxCell>
        <mxCell id="bnfIQaxyl0gTqHExW7aB-25" style="edgeStyle=orthogonalEdgeStyle;html=1;labelBackgroundColor=none;endArrow=open;endSize=8;strokeColor=#ff0000;fontFamily=Verdana;fontSize=12;align=left;entryX=0;entryY=0.5;entryDx=0;entryDy=0;" parent="bnfIQaxyl0gTqHExW7aB-13" source="bnfIQaxyl0gTqHExW7aB-24" target="bnfIQaxyl0gTqHExW7aB-14" edge="1">
          <mxGeometry relative="1" as="geometry">
            <mxPoint x="250" y="45" as="targetPoint" />
          </mxGeometry>
        </mxCell>
        <mxCell id="bnfIQaxyl0gTqHExW7aB-26" value="start" style="edgeLabel;html=1;align=center;verticalAlign=middle;resizable=0;points=[];" parent="bnfIQaxyl0gTqHExW7aB-25" vertex="1" connectable="0">
          <mxGeometry x="-0.2571" y="2" relative="1" as="geometry">
            <mxPoint as="offset" />
          </mxGeometry>
        </mxCell>
        <mxCell id="bnfIQaxyl0gTqHExW7aB-32" value="_enc_img" style="rounded=1;whiteSpace=wrap;html=1;arcSize=24;fillColor=#ffffc0;strokeColor=#ff0000;shadow=0;comic=0;labelBackgroundColor=none;fontFamily=Verdana;fontSize=12;fontColor=#000000;align=center;" parent="bnfIQaxyl0gTqHExW7aB-13" vertex="1">
          <mxGeometry x="440" y="117.5" width="65" height="45" as="geometry" />
        </mxCell>
        <mxCell id="bnfIQaxyl0gTqHExW7aB-35" style="edgeStyle=orthogonalEdgeStyle;html=1;labelBackgroundColor=none;endArrow=open;endSize=8;strokeColor=#ff0000;fontFamily=Verdana;fontSize=12;align=left;entryX=0;entryY=0.5;entryDx=0;entryDy=0;exitX=1;exitY=0.5;exitDx=0;exitDy=0;" parent="bnfIQaxyl0gTqHExW7aB-13" source="bnfIQaxyl0gTqHExW7aB-14" target="bnfIQaxyl0gTqHExW7aB-32" edge="1">
          <mxGeometry relative="1" as="geometry">
            <mxPoint x="230" y="120" as="targetPoint" />
            <mxPoint x="235" y="135" as="sourcePoint" />
          </mxGeometry>
        </mxCell>
        <mxCell id="bnfIQaxyl0gTqHExW7aB-37" value="encrypt using lsb algorithm" style="edgeLabel;html=1;align=center;verticalAlign=middle;resizable=0;points=[];" parent="bnfIQaxyl0gTqHExW7aB-35" vertex="1" connectable="0">
          <mxGeometry x="-0.125" y="-5" relative="1" as="geometry">
            <mxPoint x="2" y="-5" as="offset" />
          </mxGeometry>
        </mxCell>
        <mxCell id="bnfIQaxyl0gTqHExW7aB-39" value="" style="ellipse;html=1;shape=endState;fillColor=#000000;strokeColor=#ff0000;rounded=1;shadow=0;comic=0;labelBackgroundColor=none;fontFamily=Verdana;fontSize=12;fontColor=#000000;align=center;" parent="bnfIQaxyl0gTqHExW7aB-13" vertex="1">
          <mxGeometry x="530" y="125" width="30" height="30" as="geometry" />
        </mxCell>
        <mxCell id="e0onVrtWX7vfqXptZFm4-30" style="edgeStyle=orthogonalEdgeStyle;html=1;labelBackgroundColor=none;endArrow=open;endSize=8;strokeColor=#ff0000;fontFamily=Verdana;fontSize=12;align=left;entryX=0;entryY=0.5;entryDx=0;entryDy=0;exitX=1;exitY=0.5;exitDx=0;exitDy=0;" edge="1" parent="bnfIQaxyl0gTqHExW7aB-13" source="bnfIQaxyl0gTqHExW7aB-32" target="bnfIQaxyl0gTqHExW7aB-39">
          <mxGeometry relative="1" as="geometry">
            <mxPoint x="440" y="150" as="targetPoint" />
            <mxPoint x="385" y="100" as="sourcePoint" />
          </mxGeometry>
        </mxCell>
        <mxCell id="bnfIQaxyl0gTqHExW7aB-15" value="audio - .wav/.flac" style="swimlane;whiteSpace=wrap;html=1;rounded=1;shadow=0;comic=0;labelBackgroundColor=none;strokeWidth=1;fontFamily=Verdana;fontSize=12;align=center;" parent="1" vertex="1">
          <mxGeometry x="-140" y="610" width="610" height="290" as="geometry" />
        </mxCell>
        <mxCell id="e0onVrtWX7vfqXptZFm4-23" value="_enc_img" style="rounded=1;whiteSpace=wrap;html=1;arcSize=24;fillColor=#ffffc0;strokeColor=#ff0000;shadow=0;comic=0;labelBackgroundColor=none;fontFamily=Verdana;fontSize=12;fontColor=#000000;align=center;" vertex="1" parent="bnfIQaxyl0gTqHExW7aB-15">
          <mxGeometry x="460" y="50" width="63" height="45" as="geometry" />
        </mxCell>
        <mxCell id="e0onVrtWX7vfqXptZFm4-17" value="" style="ellipse;html=1;shape=startState;fillColor=#000000;strokeColor=#ff0000;rounded=1;shadow=0;comic=0;labelBackgroundColor=none;fontFamily=Verdana;fontSize=12;fontColor=#000000;align=center;direction=south;" vertex="1" parent="bnfIQaxyl0gTqHExW7aB-15">
          <mxGeometry x="20" y="70" width="30" height="30" as="geometry" />
        </mxCell>
        <mxCell id="e0onVrtWX7vfqXptZFm4-16" value="user upload audio file/use from library" style="rounded=1;whiteSpace=wrap;html=1;arcSize=24;fillColor=#ffffc0;strokeColor=#ff0000;shadow=0;comic=0;labelBackgroundColor=none;fontFamily=Verdana;fontSize=12;fontColor=#000000;align=center;" vertex="1" parent="bnfIQaxyl0gTqHExW7aB-15">
          <mxGeometry x="70" y="102.5" width="120" height="60" as="geometry" />
        </mxCell>
        <mxCell id="e0onVrtWX7vfqXptZFm4-18" style="edgeStyle=orthogonalEdgeStyle;html=1;labelBackgroundColor=none;endArrow=open;endSize=8;strokeColor=#ff0000;fontFamily=Verdana;fontSize=12;align=left;entryX=0;entryY=0.5;entryDx=0;entryDy=0;" edge="1" parent="bnfIQaxyl0gTqHExW7aB-15" source="e0onVrtWX7vfqXptZFm4-17" target="e0onVrtWX7vfqXptZFm4-16">
          <mxGeometry relative="1" as="geometry">
            <mxPoint x="290" y="85" as="targetPoint" />
          </mxGeometry>
        </mxCell>
        <mxCell id="e0onVrtWX7vfqXptZFm4-19" value="start" style="edgeLabel;html=1;align=center;verticalAlign=middle;resizable=0;points=[];" vertex="1" connectable="0" parent="e0onVrtWX7vfqXptZFm4-18">
          <mxGeometry x="-0.2571" y="2" relative="1" as="geometry">
            <mxPoint as="offset" />
          </mxGeometry>
        </mxCell>
        <mxCell id="e0onVrtWX7vfqXptZFm4-197" value="" style="ellipse;html=1;shape=endState;fillColor=#000000;strokeColor=#ff0000;rounded=1;shadow=0;comic=0;labelBackgroundColor=none;fontFamily=Verdana;fontSize=12;fontColor=#000000;align=center;" vertex="1" parent="bnfIQaxyl0gTqHExW7aB-15">
          <mxGeometry x="568" y="117.5" width="30" height="30" as="geometry" />
        </mxCell>
        <mxCell id="e0onVrtWX7vfqXptZFm4-199" style="edgeStyle=orthogonalEdgeStyle;html=1;labelBackgroundColor=none;endArrow=open;endSize=8;strokeColor=#ff0000;fontFamily=Verdana;fontSize=12;align=left;entryX=0.5;entryY=0;entryDx=0;entryDy=0;exitX=1;exitY=0.5;exitDx=0;exitDy=0;" edge="1" parent="bnfIQaxyl0gTqHExW7aB-15" source="e0onVrtWX7vfqXptZFm4-23" target="e0onVrtWX7vfqXptZFm4-197">
          <mxGeometry relative="1" as="geometry">
            <mxPoint x="590" y="100" as="targetPoint" />
            <mxPoint x="550" y="100" as="sourcePoint" />
          </mxGeometry>
        </mxCell>
        <mxCell id="bnfIQaxyl0gTqHExW7aB-19" style="edgeStyle=elbowEdgeStyle;html=1;labelBackgroundColor=none;endArrow=open;endSize=8;strokeColor=#ff0000;fontFamily=Verdana;fontSize=12;align=left;exitX=0;exitY=0.5;exitDx=0;exitDy=0;entryX=0.5;entryY=0;entryDx=0;entryDy=0;elbow=horizontal;" parent="1" source="bnfIQaxyl0gTqHExW7aB-8" target="bnfIQaxyl0gTqHExW7aB-13" edge="1">
          <mxGeometry relative="1" as="geometry">
            <mxPoint x="710" y="245" as="sourcePoint" />
            <mxPoint x="710" y="325" as="targetPoint" />
            <Array as="points">
              <mxPoint x="202" y="310" />
            </Array>
          </mxGeometry>
        </mxCell>
        <mxCell id="bnfIQaxyl0gTqHExW7aB-21" style="edgeStyle=elbowEdgeStyle;html=1;labelBackgroundColor=none;endArrow=open;endSize=8;strokeColor=#ff0000;fontFamily=Verdana;fontSize=12;align=left;exitX=0;exitY=0;exitDx=0;exitDy=0;entryX=0;entryY=0;entryDx=0;entryDy=0;elbow=horizontal;" parent="1" source="bnfIQaxyl0gTqHExW7aB-8" target="bnfIQaxyl0gTqHExW7aB-15" edge="1">
          <mxGeometry relative="1" as="geometry">
            <mxPoint x="580" y="250" as="sourcePoint" />
            <mxPoint x="488" y="305" as="targetPoint" />
            <Array as="points">
              <mxPoint x="-140" y="440" />
            </Array>
          </mxGeometry>
        </mxCell>
        <mxCell id="bnfIQaxyl0gTqHExW7aB-22" style="edgeStyle=elbowEdgeStyle;html=1;labelBackgroundColor=none;endArrow=open;endSize=8;strokeColor=#ff0000;fontFamily=Verdana;fontSize=12;align=left;exitX=1;exitY=0.5;exitDx=0;exitDy=0;entryX=0.5;entryY=0;entryDx=0;entryDy=0;elbow=horizontal;" parent="1" source="bnfIQaxyl0gTqHExW7aB-8" target="bnfIQaxyl0gTqHExW7aB-17" edge="1">
          <mxGeometry relative="1" as="geometry">
            <mxPoint x="812" y="300" as="sourcePoint" />
            <mxPoint x="720" y="355" as="targetPoint" />
            <Array as="points">
              <mxPoint x="838" y="310" />
            </Array>
          </mxGeometry>
        </mxCell>
        <mxCell id="bnfIQaxyl0gTqHExW7aB-23" style="edgeStyle=elbowEdgeStyle;html=1;labelBackgroundColor=none;endArrow=open;endSize=8;strokeColor=#ff0000;fontFamily=Verdana;fontSize=12;align=left;exitX=1;exitY=0;exitDx=0;exitDy=0;entryX=1;entryY=0;entryDx=0;entryDy=0;elbow=horizontal;" parent="1" source="bnfIQaxyl0gTqHExW7aB-8" target="e0onVrtWX7vfqXptZFm4-175" edge="1">
          <mxGeometry relative="1" as="geometry">
            <mxPoint x="1032" y="300" as="sourcePoint" />
            <mxPoint x="2140" y="610" as="targetPoint" />
            <Array as="points">
              <mxPoint x="1180" y="470" />
            </Array>
          </mxGeometry>
        </mxCell>
        <mxCell id="bnfIQaxyl0gTqHExW7aB-44" value="send file to user2" style="edgeStyle=orthogonalEdgeStyle;html=1;labelBackgroundColor=none;endArrow=open;endSize=8;strokeColor=#ff0000;fontFamily=Verdana;fontSize=12;align=left;entryX=0.5;entryY=0;entryDx=0;entryDy=0;exitX=1;exitY=1;exitDx=0;exitDy=0;" parent="1" edge="1">
          <mxGeometry x="0.7904" y="-68" relative="1" as="geometry">
            <mxPoint x="518" y="985.9999999999998" as="targetPoint" />
            <mxPoint x="475" y="590" as="sourcePoint" />
            <Array as="points">
              <mxPoint x="518" y="590" />
            </Array>
            <mxPoint as="offset" />
          </mxGeometry>
        </mxCell>
        <mxCell id="bnfIQaxyl0gTqHExW7aB-45" value="user2 decode stage" style="rounded=1;whiteSpace=wrap;html=1;arcSize=24;fillColor=#ffffc0;strokeColor=#ff0000;shadow=0;comic=0;labelBackgroundColor=none;fontFamily=Verdana;fontSize=12;fontColor=#000000;align=center;" parent="1" vertex="1">
          <mxGeometry x="458" y="970" width="120" height="60" as="geometry" />
        </mxCell>
        <mxCell id="bnfIQaxyl0gTqHExW7aB-17" value="video - .avi/.mkv" style="swimlane;whiteSpace=wrap;html=1;rounded=1;shadow=0;comic=0;labelBackgroundColor=none;strokeWidth=1;fontFamily=Verdana;fontSize=12;align=center;" parent="1" vertex="1">
          <mxGeometry x="560" y="340" width="575" height="250" as="geometry" />
        </mxCell>
        <mxCell id="e0onVrtWX7vfqXptZFm4-110" value="_enc_img" style="rounded=1;whiteSpace=wrap;html=1;arcSize=24;fillColor=#ffffc0;strokeColor=#ff0000;shadow=0;comic=0;labelBackgroundColor=none;fontFamily=Verdana;fontSize=12;fontColor=#000000;align=center;" vertex="1" parent="bnfIQaxyl0gTqHExW7aB-17">
          <mxGeometry x="425" y="30" width="63" height="45" as="geometry" />
        </mxCell>
        <mxCell id="e0onVrtWX7vfqXptZFm4-111" value="" style="ellipse;html=1;shape=startState;fillColor=#000000;strokeColor=#ff0000;rounded=1;shadow=0;comic=0;labelBackgroundColor=none;fontFamily=Verdana;fontSize=12;fontColor=#000000;align=center;direction=south;" vertex="1" parent="bnfIQaxyl0gTqHExW7aB-17">
          <mxGeometry x="12" y="50" width="30" height="30" as="geometry" />
        </mxCell>
        <mxCell id="e0onVrtWX7vfqXptZFm4-112" value="user upload video/use from library" style="rounded=1;whiteSpace=wrap;html=1;arcSize=24;fillColor=#ffffc0;strokeColor=#ff0000;shadow=0;comic=0;labelBackgroundColor=none;fontFamily=Verdana;fontSize=12;fontColor=#000000;align=center;" vertex="1" parent="bnfIQaxyl0gTqHExW7aB-17">
          <mxGeometry x="62" y="82.5" width="120" height="60" as="geometry" />
        </mxCell>
        <mxCell id="e0onVrtWX7vfqXptZFm4-113" style="edgeStyle=orthogonalEdgeStyle;html=1;labelBackgroundColor=none;endArrow=open;endSize=8;strokeColor=#ff0000;fontFamily=Verdana;fontSize=12;align=left;entryX=0;entryY=0.5;entryDx=0;entryDy=0;" edge="1" parent="bnfIQaxyl0gTqHExW7aB-17" source="e0onVrtWX7vfqXptZFm4-111" target="e0onVrtWX7vfqXptZFm4-112">
          <mxGeometry relative="1" as="geometry">
            <mxPoint x="282" y="65" as="targetPoint" />
          </mxGeometry>
        </mxCell>
        <mxCell id="e0onVrtWX7vfqXptZFm4-114" value="start" style="edgeLabel;html=1;align=center;verticalAlign=middle;resizable=0;points=[];" vertex="1" connectable="0" parent="e0onVrtWX7vfqXptZFm4-113">
          <mxGeometry x="-0.2571" y="2" relative="1" as="geometry">
            <mxPoint as="offset" />
          </mxGeometry>
        </mxCell>
        <mxCell id="e0onVrtWX7vfqXptZFm4-115" value="_enc_img" style="rounded=1;whiteSpace=wrap;html=1;arcSize=24;fillColor=#ffffc0;strokeColor=#ff0000;shadow=0;comic=0;labelBackgroundColor=none;fontFamily=Verdana;fontSize=12;fontColor=#000000;align=center;" vertex="1" parent="bnfIQaxyl0gTqHExW7aB-17">
          <mxGeometry x="425" y="160" width="65" height="45" as="geometry" />
        </mxCell>
        <mxCell id="e0onVrtWX7vfqXptZFm4-116" value="" style="ellipse;whiteSpace=wrap;html=1;aspect=fixed;" vertex="1" parent="bnfIQaxyl0gTqHExW7aB-17">
          <mxGeometry x="308" y="87.5" width="50" height="50" as="geometry" />
        </mxCell>
        <mxCell id="e0onVrtWX7vfqXptZFm4-117" style="edgeStyle=orthogonalEdgeStyle;html=1;labelBackgroundColor=none;endArrow=open;endSize=8;strokeColor=#ff0000;fontFamily=Verdana;fontSize=12;align=left;entryX=0;entryY=0.5;entryDx=0;entryDy=0;exitX=1;exitY=0.5;exitDx=0;exitDy=0;" edge="1" parent="bnfIQaxyl0gTqHExW7aB-17" source="e0onVrtWX7vfqXptZFm4-112" target="e0onVrtWX7vfqXptZFm4-116">
          <mxGeometry relative="1" as="geometry">
            <mxPoint x="287" y="165" as="targetPoint" />
            <mxPoint x="222" y="120" as="sourcePoint" />
          </mxGeometry>
        </mxCell>
        <mxCell id="e0onVrtWX7vfqXptZFm4-118" value="choose algorithm" style="edgeLabel;html=1;align=center;verticalAlign=middle;resizable=0;points=[];" vertex="1" connectable="0" parent="e0onVrtWX7vfqXptZFm4-117">
          <mxGeometry x="-0.1333" y="-2" relative="1" as="geometry">
            <mxPoint y="1" as="offset" />
          </mxGeometry>
        </mxCell>
        <mxCell id="e0onVrtWX7vfqXptZFm4-119" style="edgeStyle=orthogonalEdgeStyle;html=1;labelBackgroundColor=none;endArrow=open;endSize=8;strokeColor=#ff0000;fontFamily=Verdana;fontSize=12;align=left;entryX=0;entryY=0.5;entryDx=0;entryDy=0;exitX=1;exitY=1;exitDx=0;exitDy=0;" edge="1" parent="bnfIQaxyl0gTqHExW7aB-17" source="e0onVrtWX7vfqXptZFm4-116" target="e0onVrtWX7vfqXptZFm4-115">
          <mxGeometry relative="1" as="geometry">
            <mxPoint x="-424" y="30" as="targetPoint" />
            <mxPoint x="-454" y="95" as="sourcePoint" />
            <Array as="points">
              <mxPoint x="351" y="183" />
            </Array>
          </mxGeometry>
        </mxCell>
        <mxCell id="e0onVrtWX7vfqXptZFm4-120" value="lsb" style="edgeLabel;html=1;align=center;verticalAlign=middle;resizable=0;points=[];" vertex="1" connectable="0" parent="e0onVrtWX7vfqXptZFm4-119">
          <mxGeometry x="-0.125" y="-5" relative="1" as="geometry">
            <mxPoint x="27" y="-5" as="offset" />
          </mxGeometry>
        </mxCell>
        <mxCell id="e0onVrtWX7vfqXptZFm4-121" style="edgeStyle=orthogonalEdgeStyle;html=1;labelBackgroundColor=none;endArrow=open;endSize=8;strokeColor=#ff0000;fontFamily=Verdana;fontSize=12;align=left;entryX=0;entryY=0.5;entryDx=0;entryDy=0;exitX=1;exitY=0;exitDx=0;exitDy=0;" edge="1" parent="bnfIQaxyl0gTqHExW7aB-17" source="e0onVrtWX7vfqXptZFm4-116" target="e0onVrtWX7vfqXptZFm4-110">
          <mxGeometry relative="1" as="geometry">
            <mxPoint x="366" y="150" as="targetPoint" />
            <mxPoint x="346" y="130" as="sourcePoint" />
            <Array as="points">
              <mxPoint x="351" y="53" />
              <mxPoint x="415" y="53" />
            </Array>
          </mxGeometry>
        </mxCell>
        <mxCell id="e0onVrtWX7vfqXptZFm4-122" value="dss" style="edgeLabel;html=1;align=center;verticalAlign=middle;resizable=0;points=[];" vertex="1" connectable="0" parent="e0onVrtWX7vfqXptZFm4-121">
          <mxGeometry x="-0.1843" y="-3" relative="1" as="geometry">
            <mxPoint x="24" y="-3" as="offset" />
          </mxGeometry>
        </mxCell>
        <mxCell id="e0onVrtWX7vfqXptZFm4-206" value="" style="ellipse;html=1;shape=endState;fillColor=#000000;strokeColor=#ff0000;rounded=1;shadow=0;comic=0;labelBackgroundColor=none;fontFamily=Verdana;fontSize=12;fontColor=#000000;align=center;" vertex="1" parent="bnfIQaxyl0gTqHExW7aB-17">
          <mxGeometry x="540" y="107.5" width="30" height="30" as="geometry" />
        </mxCell>
        <mxCell id="e0onVrtWX7vfqXptZFm4-207" style="edgeStyle=orthogonalEdgeStyle;html=1;labelBackgroundColor=none;endArrow=open;endSize=8;strokeColor=#ff0000;fontFamily=Verdana;fontSize=12;align=left;entryX=0.5;entryY=0;entryDx=0;entryDy=0;exitX=1;exitY=0.5;exitDx=0;exitDy=0;" edge="1" parent="bnfIQaxyl0gTqHExW7aB-17" target="e0onVrtWX7vfqXptZFm4-206" source="e0onVrtWX7vfqXptZFm4-110">
          <mxGeometry relative="1" as="geometry">
            <mxPoint x="450" y="95" as="targetPoint" />
            <mxPoint x="500" y="85.5" as="sourcePoint" />
          </mxGeometry>
        </mxCell>
        <mxCell id="e0onVrtWX7vfqXptZFm4-208" style="edgeStyle=orthogonalEdgeStyle;html=1;labelBackgroundColor=none;endArrow=open;endSize=8;strokeColor=#ff0000;fontFamily=Verdana;fontSize=12;align=left;entryX=0.5;entryY=1;entryDx=0;entryDy=0;exitX=1;exitY=0.5;exitDx=0;exitDy=0;" edge="1" parent="bnfIQaxyl0gTqHExW7aB-17" source="e0onVrtWX7vfqXptZFm4-115" target="e0onVrtWX7vfqXptZFm4-206">
          <mxGeometry relative="1" as="geometry">
            <mxPoint x="597" y="137" as="targetPoint" />
            <mxPoint x="530" y="120" as="sourcePoint" />
          </mxGeometry>
        </mxCell>
        <mxCell id="e0onVrtWX7vfqXptZFm4-20" value="_enc_img" style="rounded=1;whiteSpace=wrap;html=1;arcSize=24;fillColor=#ffffc0;strokeColor=#ff0000;shadow=0;comic=0;labelBackgroundColor=none;fontFamily=Verdana;fontSize=12;fontColor=#000000;align=center;" vertex="1" parent="1">
          <mxGeometry x="323" y="720" width="65" height="45" as="geometry" />
        </mxCell>
        <mxCell id="e0onVrtWX7vfqXptZFm4-21" value="" style="ellipse;whiteSpace=wrap;html=1;aspect=fixed;" vertex="1" parent="1">
          <mxGeometry x="176" y="717.5" width="50" height="50" as="geometry" />
        </mxCell>
        <mxCell id="e0onVrtWX7vfqXptZFm4-22" style="edgeStyle=orthogonalEdgeStyle;html=1;labelBackgroundColor=none;endArrow=open;endSize=8;strokeColor=#ff0000;fontFamily=Verdana;fontSize=12;align=left;entryX=0;entryY=0.5;entryDx=0;entryDy=0;exitX=1;exitY=0.5;exitDx=0;exitDy=0;" edge="1" parent="1" source="e0onVrtWX7vfqXptZFm4-16" target="e0onVrtWX7vfqXptZFm4-21">
          <mxGeometry relative="1" as="geometry">
            <mxPoint x="155" y="795" as="targetPoint" />
            <mxPoint x="90" y="750" as="sourcePoint" />
          </mxGeometry>
        </mxCell>
        <mxCell id="e0onVrtWX7vfqXptZFm4-40" value="choose algorithm" style="edgeLabel;html=1;align=center;verticalAlign=middle;resizable=0;points=[];" vertex="1" connectable="0" parent="e0onVrtWX7vfqXptZFm4-22">
          <mxGeometry x="-0.1333" y="-2" relative="1" as="geometry">
            <mxPoint y="1" as="offset" />
          </mxGeometry>
        </mxCell>
        <mxCell id="e0onVrtWX7vfqXptZFm4-24" style="edgeStyle=orthogonalEdgeStyle;html=1;labelBackgroundColor=none;endArrow=open;endSize=8;strokeColor=#ff0000;fontFamily=Verdana;fontSize=12;align=left;entryX=0;entryY=0.5;entryDx=0;entryDy=0;exitX=1;exitY=0.5;exitDx=0;exitDy=0;" edge="1" parent="1" source="e0onVrtWX7vfqXptZFm4-21" target="e0onVrtWX7vfqXptZFm4-20">
          <mxGeometry relative="1" as="geometry">
            <mxPoint x="-556" y="660" as="targetPoint" />
            <mxPoint x="-586" y="725" as="sourcePoint" />
          </mxGeometry>
        </mxCell>
        <mxCell id="e0onVrtWX7vfqXptZFm4-25" value="lsb" style="edgeLabel;html=1;align=center;verticalAlign=middle;resizable=0;points=[];" vertex="1" connectable="0" parent="e0onVrtWX7vfqXptZFm4-24">
          <mxGeometry x="-0.125" y="-5" relative="1" as="geometry">
            <mxPoint x="2" y="-5" as="offset" />
          </mxGeometry>
        </mxCell>
        <mxCell id="e0onVrtWX7vfqXptZFm4-26" style="edgeStyle=orthogonalEdgeStyle;html=1;labelBackgroundColor=none;endArrow=open;endSize=8;strokeColor=#ff0000;fontFamily=Verdana;fontSize=12;align=left;entryX=0;entryY=0.5;entryDx=0;entryDy=0;exitX=1;exitY=0;exitDx=0;exitDy=0;" edge="1" parent="1" source="e0onVrtWX7vfqXptZFm4-21" target="e0onVrtWX7vfqXptZFm4-23">
          <mxGeometry relative="1" as="geometry">
            <mxPoint x="234" y="780" as="targetPoint" />
            <mxPoint x="214" y="760" as="sourcePoint" />
            <Array as="points">
              <mxPoint x="219" y="683" />
              <mxPoint x="283" y="683" />
            </Array>
          </mxGeometry>
        </mxCell>
        <mxCell id="e0onVrtWX7vfqXptZFm4-27" value="dss" style="edgeLabel;html=1;align=center;verticalAlign=middle;resizable=0;points=[];" vertex="1" connectable="0" parent="e0onVrtWX7vfqXptZFm4-26">
          <mxGeometry x="-0.1843" y="-3" relative="1" as="geometry">
            <mxPoint x="35" y="-3" as="offset" />
          </mxGeometry>
        </mxCell>
        <mxCell id="e0onVrtWX7vfqXptZFm4-33" value="_enc_img" style="rounded=1;whiteSpace=wrap;html=1;arcSize=24;fillColor=#ffffc0;strokeColor=#ff0000;shadow=0;comic=0;labelBackgroundColor=none;fontFamily=Verdana;fontSize=12;fontColor=#000000;align=center;" vertex="1" parent="1">
          <mxGeometry x="323" y="785" width="65" height="45" as="geometry" />
        </mxCell>
        <mxCell id="e0onVrtWX7vfqXptZFm4-34" style="edgeStyle=orthogonalEdgeStyle;html=1;labelBackgroundColor=none;endArrow=open;endSize=8;strokeColor=#ff0000;fontFamily=Verdana;fontSize=12;align=left;entryX=0;entryY=0.5;entryDx=0;entryDy=0;exitX=1;exitY=1;exitDx=0;exitDy=0;" edge="1" parent="1" target="e0onVrtWX7vfqXptZFm4-33" source="e0onVrtWX7vfqXptZFm4-21">
          <mxGeometry relative="1" as="geometry">
            <mxPoint x="-556" y="725" as="targetPoint" />
            <mxPoint x="164" y="770" as="sourcePoint" />
            <Array as="points">
              <mxPoint x="220" y="760" />
              <mxPoint x="220" y="808" />
            </Array>
          </mxGeometry>
        </mxCell>
        <mxCell id="e0onVrtWX7vfqXptZFm4-35" value="echo hiding" style="edgeLabel;html=1;align=center;verticalAlign=middle;resizable=0;points=[];" vertex="1" connectable="0" parent="e0onVrtWX7vfqXptZFm4-34">
          <mxGeometry x="-0.125" y="-5" relative="1" as="geometry">
            <mxPoint x="32" y="-5" as="offset" />
          </mxGeometry>
        </mxCell>
        <mxCell id="e0onVrtWX7vfqXptZFm4-41" value="" style="edgeStyle=orthogonalEdgeStyle;html=1;labelBackgroundColor=none;endArrow=open;endSize=8;strokeColor=#ff0000;fontFamily=Verdana;fontSize=12;align=left;entryX=0.5;entryY=0;entryDx=0;entryDy=0;exitX=1;exitY=1;exitDx=0;exitDy=0;" edge="1" parent="1" source="bnfIQaxyl0gTqHExW7aB-15" target="bnfIQaxyl0gTqHExW7aB-45">
          <mxGeometry relative="1" as="geometry">
            <mxPoint x="545" y="1210" as="targetPoint" />
            <mxPoint x="430" y="850" as="sourcePoint" />
            <Array as="points">
              <mxPoint x="518" y="900" />
            </Array>
          </mxGeometry>
        </mxCell>
        <mxCell id="e0onVrtWX7vfqXptZFm4-42" value="" style="edgeStyle=orthogonalEdgeStyle;html=1;labelBackgroundColor=none;endArrow=open;endSize=8;strokeColor=#ff0000;fontFamily=Verdana;fontSize=12;align=left;entryX=0.5;entryY=0;entryDx=0;entryDy=0;exitX=0;exitY=1;exitDx=0;exitDy=0;" edge="1" parent="1" source="e0onVrtWX7vfqXptZFm4-175" target="bnfIQaxyl0gTqHExW7aB-45">
          <mxGeometry relative="1" as="geometry">
            <mxPoint x="858" y="1096" as="targetPoint" />
            <mxPoint x="620" y="1480" as="sourcePoint" />
            <Array as="points">
              <mxPoint x="600" y="900" />
              <mxPoint x="518" y="900" />
            </Array>
          </mxGeometry>
        </mxCell>
        <mxCell id="e0onVrtWX7vfqXptZFm4-43" value="" style="edgeStyle=orthogonalEdgeStyle;html=1;labelBackgroundColor=none;endArrow=open;endSize=8;strokeColor=#ff0000;fontFamily=Verdana;fontSize=12;align=left;entryX=0.5;entryY=0;entryDx=0;entryDy=0;exitX=0;exitY=1;exitDx=0;exitDy=0;" edge="1" parent="1" source="bnfIQaxyl0gTqHExW7aB-17" target="bnfIQaxyl0gTqHExW7aB-45">
          <mxGeometry relative="1" as="geometry">
            <mxPoint x="868" y="1126" as="targetPoint" />
            <mxPoint x="780" y="990" as="sourcePoint" />
            <Array as="points">
              <mxPoint x="518" y="590" />
            </Array>
          </mxGeometry>
        </mxCell>
        <mxCell id="e0onVrtWX7vfqXptZFm4-175" value="text - .pdf/.docx" style="swimlane;whiteSpace=wrap;html=1;rounded=1;shadow=0;comic=0;labelBackgroundColor=none;strokeWidth=1;fontFamily=Verdana;fontSize=12;align=center;" vertex="1" parent="1">
          <mxGeometry x="590" y="610" width="590" height="290" as="geometry" />
        </mxCell>
        <mxCell id="e0onVrtWX7vfqXptZFm4-176" value="_enc_img" style="rounded=1;whiteSpace=wrap;html=1;arcSize=24;fillColor=#ffffc0;strokeColor=#ff0000;shadow=0;comic=0;labelBackgroundColor=none;fontFamily=Verdana;fontSize=12;fontColor=#000000;align=center;" vertex="1" parent="e0onVrtWX7vfqXptZFm4-175">
          <mxGeometry x="300" y="90" width="63" height="45" as="geometry" />
        </mxCell>
        <mxCell id="e0onVrtWX7vfqXptZFm4-177" value="" style="ellipse;html=1;shape=startState;fillColor=#000000;strokeColor=#ff0000;rounded=1;shadow=0;comic=0;labelBackgroundColor=none;fontFamily=Verdana;fontSize=12;fontColor=#000000;align=center;direction=south;" vertex="1" parent="e0onVrtWX7vfqXptZFm4-175">
          <mxGeometry x="12" y="50" width="30" height="30" as="geometry" />
        </mxCell>
        <mxCell id="e0onVrtWX7vfqXptZFm4-178" value="user upload text file/use from library" style="rounded=1;whiteSpace=wrap;html=1;arcSize=24;fillColor=#ffffc0;strokeColor=#ff0000;shadow=0;comic=0;labelBackgroundColor=none;fontFamily=Verdana;fontSize=12;fontColor=#000000;align=center;" vertex="1" parent="e0onVrtWX7vfqXptZFm4-175">
          <mxGeometry x="62" y="82.5" width="120" height="60" as="geometry" />
        </mxCell>
        <mxCell id="e0onVrtWX7vfqXptZFm4-179" style="edgeStyle=orthogonalEdgeStyle;html=1;labelBackgroundColor=none;endArrow=open;endSize=8;strokeColor=#ff0000;fontFamily=Verdana;fontSize=12;align=left;entryX=0;entryY=0.5;entryDx=0;entryDy=0;" edge="1" parent="e0onVrtWX7vfqXptZFm4-175" source="e0onVrtWX7vfqXptZFm4-177" target="e0onVrtWX7vfqXptZFm4-178">
          <mxGeometry relative="1" as="geometry">
            <mxPoint x="282" y="65" as="targetPoint" />
          </mxGeometry>
        </mxCell>
        <mxCell id="e0onVrtWX7vfqXptZFm4-180" value="start" style="edgeLabel;html=1;align=center;verticalAlign=middle;resizable=0;points=[];" vertex="1" connectable="0" parent="e0onVrtWX7vfqXptZFm4-179">
          <mxGeometry x="-0.2571" y="2" relative="1" as="geometry">
            <mxPoint as="offset" />
          </mxGeometry>
        </mxCell>
        <mxCell id="e0onVrtWX7vfqXptZFm4-183" style="edgeStyle=orthogonalEdgeStyle;html=1;labelBackgroundColor=none;endArrow=open;endSize=8;strokeColor=#ff0000;fontFamily=Verdana;fontSize=12;align=left;entryX=0;entryY=0.5;entryDx=0;entryDy=0;exitX=1;exitY=0.5;exitDx=0;exitDy=0;" edge="1" parent="e0onVrtWX7vfqXptZFm4-175" source="e0onVrtWX7vfqXptZFm4-178" target="e0onVrtWX7vfqXptZFm4-176">
          <mxGeometry relative="1" as="geometry">
            <mxPoint x="308" y="112.5" as="targetPoint" />
            <mxPoint x="222" y="120" as="sourcePoint" />
          </mxGeometry>
        </mxCell>
        <mxCell id="e0onVrtWX7vfqXptZFm4-184" value="white space" style="edgeLabel;html=1;align=center;verticalAlign=middle;resizable=0;points=[];" vertex="1" connectable="0" parent="e0onVrtWX7vfqXptZFm4-183">
          <mxGeometry x="-0.1333" y="-2" relative="1" as="geometry">
            <mxPoint y="1" as="offset" />
          </mxGeometry>
        </mxCell>
        <mxCell id="e0onVrtWX7vfqXptZFm4-194" value="" style="ellipse;html=1;shape=endState;fillColor=#000000;strokeColor=#ff0000;rounded=1;shadow=0;comic=0;labelBackgroundColor=none;fontFamily=Verdana;fontSize=12;fontColor=#000000;align=center;" vertex="1" parent="e0onVrtWX7vfqXptZFm4-175">
          <mxGeometry x="455" y="97.5" width="30" height="30" as="geometry" />
        </mxCell>
        <mxCell id="e0onVrtWX7vfqXptZFm4-195" style="edgeStyle=orthogonalEdgeStyle;html=1;labelBackgroundColor=none;endArrow=open;endSize=8;strokeColor=#ff0000;fontFamily=Verdana;fontSize=12;align=left;entryX=0;entryY=0.5;entryDx=0;entryDy=0;exitX=1;exitY=0.5;exitDx=0;exitDy=0;" edge="1" parent="e0onVrtWX7vfqXptZFm4-175" target="e0onVrtWX7vfqXptZFm4-194" source="e0onVrtWX7vfqXptZFm4-176">
          <mxGeometry relative="1" as="geometry">
            <mxPoint x="365" y="122.5" as="targetPoint" />
            <mxPoint x="430" y="112.5" as="sourcePoint" />
          </mxGeometry>
        </mxCell>
        <mxCell id="e0onVrtWX7vfqXptZFm4-198" style="edgeStyle=orthogonalEdgeStyle;html=1;labelBackgroundColor=none;endArrow=open;endSize=8;strokeColor=#ff0000;fontFamily=Verdana;fontSize=12;align=left;entryX=0;entryY=0.5;entryDx=0;entryDy=0;exitX=1;exitY=0.5;exitDx=0;exitDy=0;" edge="1" parent="1" target="e0onVrtWX7vfqXptZFm4-197" source="e0onVrtWX7vfqXptZFm4-20">
          <mxGeometry relative="1" as="geometry">
            <mxPoint x="338" y="752.5" as="targetPoint" />
            <mxPoint x="403" y="742.5" as="sourcePoint" />
          </mxGeometry>
        </mxCell>
        <mxCell id="e0onVrtWX7vfqXptZFm4-200" style="edgeStyle=orthogonalEdgeStyle;html=1;labelBackgroundColor=none;endArrow=open;endSize=8;strokeColor=#ff0000;fontFamily=Verdana;fontSize=12;align=left;entryX=0.5;entryY=1;entryDx=0;entryDy=0;exitX=1;exitY=0.5;exitDx=0;exitDy=0;" edge="1" parent="1" source="e0onVrtWX7vfqXptZFm4-33" target="e0onVrtWX7vfqXptZFm4-197">
          <mxGeometry relative="1" as="geometry">
            <mxPoint x="520" y="845" as="targetPoint" />
            <mxPoint x="460" y="800" as="sourcePoint" />
          </mxGeometry>
        </mxCell>
        <mxCell id="e0onVrtWX7vfqXptZFm4-209" style="edgeStyle=orthogonalEdgeStyle;html=1;labelBackgroundColor=none;endArrow=open;endSize=8;strokeColor=#ff0000;fontFamily=Verdana;fontSize=12;align=left;exitX=0;exitY=0.5;exitDx=0;exitDy=0;entryX=1;entryY=0.5;entryDx=0;entryDy=0;" edge="1" parent="1" source="bnfIQaxyl0gTqHExW7aB-45" target="e0onVrtWX7vfqXptZFm4-211">
          <mxGeometry relative="1" as="geometry">
            <mxPoint x="480" y="1090" as="targetPoint" />
            <mxPoint x="350" y="1090" as="sourcePoint" />
          </mxGeometry>
        </mxCell>
        <mxCell id="e0onVrtWX7vfqXptZFm4-210" value="enter file and password" style="edgeLabel;html=1;align=center;verticalAlign=middle;resizable=0;points=[];" vertex="1" connectable="0" parent="e0onVrtWX7vfqXptZFm4-209">
          <mxGeometry x="-0.1333" y="-2" relative="1" as="geometry">
            <mxPoint y="1" as="offset" />
          </mxGeometry>
        </mxCell>
        <mxCell id="e0onVrtWX7vfqXptZFm4-211" value="user 2 enter password and file&amp;nbsp;" style="rounded=1;whiteSpace=wrap;html=1;arcSize=24;fillColor=#ffffc0;strokeColor=#ff0000;shadow=0;comic=0;labelBackgroundColor=none;fontFamily=Verdana;fontSize=12;fontColor=#000000;align=center;" vertex="1" parent="1">
          <mxGeometry x="160" y="970" width="120" height="60" as="geometry" />
        </mxCell>
        <mxCell id="e0onVrtWX7vfqXptZFm4-212" value="user2 get array _encypts[]&amp;nbsp; with possible message" style="rounded=1;whiteSpace=wrap;html=1;arcSize=24;fillColor=#ffffc0;strokeColor=#ff0000;shadow=0;comic=0;labelBackgroundColor=none;fontFamily=Verdana;fontSize=12;fontColor=#000000;align=center;" vertex="1" parent="1">
          <mxGeometry x="186" y="1075" width="160" height="90" as="geometry" />
        </mxCell>
        <mxCell id="e0onVrtWX7vfqXptZFm4-213" style="edgeStyle=orthogonalEdgeStyle;html=1;labelBackgroundColor=none;endArrow=open;endSize=8;strokeColor=#ff0000;fontFamily=Verdana;fontSize=12;align=left;exitX=0;exitY=0.5;exitDx=0;exitDy=0;entryX=0.5;entryY=0;entryDx=0;entryDy=0;" edge="1" parent="1" source="e0onVrtWX7vfqXptZFm4-211" target="e0onVrtWX7vfqXptZFm4-215">
          <mxGeometry relative="1" as="geometry">
            <mxPoint x="350" y="1080" as="targetPoint" />
            <mxPoint x="528" y="1080" as="sourcePoint" />
          </mxGeometry>
        </mxCell>
        <mxCell id="e0onVrtWX7vfqXptZFm4-214" value="decode in every algorithm for that file type" style="edgeLabel;html=1;align=center;verticalAlign=middle;resizable=0;points=[];" vertex="1" connectable="0" parent="e0onVrtWX7vfqXptZFm4-213">
          <mxGeometry x="-0.1333" y="-2" relative="1" as="geometry">
            <mxPoint y="1" as="offset" />
          </mxGeometry>
        </mxCell>
        <mxCell id="e0onVrtWX7vfqXptZFm4-215" value="user 2 enter password and file&amp;nbsp;" style="rounded=1;whiteSpace=wrap;html=1;arcSize=24;fillColor=#ffffc0;strokeColor=#ff0000;shadow=0;comic=0;labelBackgroundColor=none;fontFamily=Verdana;fontSize=12;fontColor=#000000;align=center;" vertex="1" parent="1">
          <mxGeometry x="-120" y="1090" width="120" height="60" as="geometry" />
        </mxCell>
        <mxCell id="e0onVrtWX7vfqXptZFm4-217" style="edgeStyle=orthogonalEdgeStyle;html=1;labelBackgroundColor=none;endArrow=open;endSize=8;strokeColor=#ff0000;fontFamily=Verdana;fontSize=12;align=left;exitX=1;exitY=0.5;exitDx=0;exitDy=0;entryX=0;entryY=0.5;entryDx=0;entryDy=0;" edge="1" parent="1" source="e0onVrtWX7vfqXptZFm4-215" target="e0onVrtWX7vfqXptZFm4-212">
          <mxGeometry relative="1" as="geometry">
            <mxPoint x="360" y="1110" as="targetPoint" />
            <mxPoint x="538" y="1110" as="sourcePoint" />
          </mxGeometry>
        </mxCell>
        <mxCell id="e0onVrtWX7vfqXptZFm4-218" value="decode with every algorithm" style="edgeLabel;html=1;align=center;verticalAlign=middle;resizable=0;points=[];" vertex="1" connectable="0" parent="e0onVrtWX7vfqXptZFm4-217">
          <mxGeometry x="-0.1333" y="-2" relative="1" as="geometry">
            <mxPoint y="1" as="offset" />
          </mxGeometry>
        </mxCell>
        <mxCell id="e0onVrtWX7vfqXptZFm4-221" value="use password to decrypt message" style="rounded=1;whiteSpace=wrap;html=1;arcSize=24;fillColor=#ffffc0;strokeColor=#ff0000;shadow=0;comic=0;labelBackgroundColor=none;fontFamily=Verdana;fontSize=12;fontColor=#000000;align=center;" vertex="1" parent="1">
          <mxGeometry x="580" y="1090" width="120" height="60" as="geometry" />
        </mxCell>
        <mxCell id="e0onVrtWX7vfqXptZFm4-222" style="edgeStyle=orthogonalEdgeStyle;html=1;labelBackgroundColor=none;endArrow=open;endSize=8;strokeColor=#ff0000;fontFamily=Verdana;fontSize=12;align=left;exitX=1;exitY=0.5;exitDx=0;exitDy=0;entryX=0;entryY=0.5;entryDx=0;entryDy=0;" edge="1" parent="1" source="e0onVrtWX7vfqXptZFm4-212" target="e0onVrtWX7vfqXptZFm4-221">
          <mxGeometry relative="1" as="geometry">
            <mxPoint x="350" y="1060" as="targetPoint" />
            <mxPoint x="528" y="1060" as="sourcePoint" />
          </mxGeometry>
        </mxCell>
        <mxCell id="e0onVrtWX7vfqXptZFm4-223" value="&lt;span style=&quot;color: rgba(0, 0, 0, 0); font-family: monospace; font-size: 0px; text-align: start; background-color: rgb(27, 29, 30);&quot;&gt;%3CmxGraphModel%3E%3Croot%3E%3CmxCell%20id%3D%220%22%2F%3E%3CmxCell%20id%3D%221%22%20parent%3D%220%22%2F%3E%3CmxCell%20id%3D%222%22%20style%3D%22edgeStyle%3DorthogonalEdgeStyle%3Bhtml%3D1%3BlabelBackgroundColor%3Dnone%3BendArrow%3Dopen%3BendSize%3D8%3BstrokeColor%3D%23ff0000%3BfontFamily%3DVerdana%3BfontSize%3D12%3Balign%3Dleft%3BexitX%3D0%3BexitY%3D0.5%3BexitDx%3D0%3BexitDy%3D0%3BentryX%3D1%3BentryY%3D0.5%3BentryDx%3D0%3BentryDy%3D0%3B%22%20edge%3D%221%22%20parent%3D%221%22%3E%3CmxGeometry%20relative%3D%221%22%20as%3D%22geometry%22%3E%3CmxPoint%20x%3D%22280%22%20y%3D%221000%22%20as%3D%22targetPoint%22%2F%3E%3CmxPoint%20x%3D%22458%22%20y%3D%221000%22%20as%3D%22sourcePoint%22%2F%3E%3C%2FmxGeometry%3E%3C%2FmxCell%3E%3CmxCell%20id%3D%223%22%20value%3D%22enter%20file%20and%20password%22%20style%3D%22edgeLabel%3Bhtml%3D1%3Balign%3Dcenter%3BverticalAlign%3Dmiddle%3Bresizable%3D0%3Bpoints%3D%5B%5D%3B%22%20vertex%3D%221%22%20connectable%3D%220%22%20parent%3D%222%22%3E%3CmxGeometry%20x%3D%22-0.1333%22%20y%3D%22-2%22%20relative%3D%221%22%20as%3D%22geometry%22%3E%3CmxPoint%20y%3D%221%22%20as%3D%22offset%22%2F%3E%3C%2FmxGeometry%3E%3C%2FmxCell%3E%3C%2Froot%3E%3C%2FmxGraphModel%3E&lt;/span&gt;&lt;span style=&quot;color: rgba(0, 0, 0, 0); font-family: monospace; font-size: 0px; text-align: start; background-color: rgb(27, 29, 30);&quot;&gt;%3CmxGraphModel%3E%3Croot%3E%3CmxCell%20id%3D%220%22%2F%3E%3CmxCell%20id%3D%221%22%20parent%3D%220%22%2F%3E%3CmxCell%20id%3D%222%22%20style%3D%22edgeStyle%3DorthogonalEdgeStyle%3Bhtml%3D1%3BlabelBackgroundColor%3Dnone%3BendArrow%3Dopen%3BendSize%3D8%3BstrokeColor%3D%23ff0000%3BfontFamily%3DVerdana%3BfontSize%3D12%3Balign%3Dleft%3BexitX%3D0%3BexitY%3D0.5%3BexitDx%3D0%3BexitDy%3D0%3BentryX%3D1%3BentryY%3D0.5%3BentryDx%3D0%3BentryDy%3D0%3B%22%20edge%3D%221%22%20parent%3D%221%22%3E%3CmxGeometry%20relative%3D%221%22%20as%3D%22geometry%22%3E%3CmxPoint%20x%3D%22280%22%20y%3D%221000%22%20as%3D%22targetPoint%22%2F%3E%3CmxPoint%20x%3D%22458%22%20y%3D%221000%22%20as%3D%22sourcePoint%22%2F%3E%3C%2FmxGeometry%3E%3C%2FmxCell%3E%3CmxCell%20id%3D%223%22%20value%3D%22enter%20file%20and%20password%22%20style%3D%22edgeLabel%3Bhtml%3D1%3Balign%3Dcenter%3BverticalAlign%3Dmiddle%3Bresizable%3D0%3Bpoints%3D%5B%5D%3B%22%20vertex%3D%221%22%20connectable%3D%220%22%20parent%3D%222%22%3E%3CmxGeometry%20x%3D%22-0.1333%22%20y%3D%22-2%22%20relative%3D%221%22%20as%3D%22geometry%22%3E%3CmxPoint%20y%3D%221%22%20as%3D%22offset%22%2F%3E%3C%2FmxGeometry%3E%3C%2FmxCell%3E%3C%2Froot%3E%3C%2FmxGraphModel%3E&lt;/span&gt;decode encryption with password" style="edgeLabel;html=1;align=center;verticalAlign=middle;resizable=0;points=[];" vertex="1" connectable="0" parent="e0onVrtWX7vfqXptZFm4-222">
          <mxGeometry x="-0.1333" y="-2" relative="1" as="geometry">
            <mxPoint y="1" as="offset" />
          </mxGeometry>
        </mxCell>
        <mxCell id="e0onVrtWX7vfqXptZFm4-226" value="_decrypt_msg" style="rounded=1;whiteSpace=wrap;html=1;arcSize=24;fillColor=#ffffc0;strokeColor=#ff0000;shadow=0;comic=0;labelBackgroundColor=none;fontFamily=Verdana;fontSize=12;fontColor=#000000;align=center;" vertex="1" parent="1">
          <mxGeometry x="930" y="1097.5" width="110" height="42.5" as="geometry" />
        </mxCell>
        <mxCell id="e0onVrtWX7vfqXptZFm4-227" style="edgeStyle=orthogonalEdgeStyle;html=1;labelBackgroundColor=none;endArrow=open;endSize=8;strokeColor=#ff0000;fontFamily=Verdana;fontSize=12;align=left;entryX=0;entryY=0.5;entryDx=0;entryDy=0;exitX=1;exitY=0.5;exitDx=0;exitDy=0;" edge="1" parent="1" target="e0onVrtWX7vfqXptZFm4-226" source="e0onVrtWX7vfqXptZFm4-221">
          <mxGeometry relative="1" as="geometry">
            <mxPoint x="1056" y="1082.5" as="targetPoint" />
            <mxPoint x="930" y="1083" as="sourcePoint" />
          </mxGeometry>
        </mxCell>
        <mxCell id="e0onVrtWX7vfqXptZFm4-228" value="user choose witch message is good" style="edgeLabel;html=1;align=center;verticalAlign=middle;resizable=0;points=[];" vertex="1" connectable="0" parent="e0onVrtWX7vfqXptZFm4-227">
          <mxGeometry x="-0.1333" y="-2" relative="1" as="geometry">
            <mxPoint y="1" as="offset" />
          </mxGeometry>
        </mxCell>
        <mxCell id="e0onVrtWX7vfqXptZFm4-229" value="" style="ellipse;html=1;shape=endState;fillColor=#000000;strokeColor=#ff0000;rounded=1;shadow=0;comic=0;labelBackgroundColor=none;fontFamily=Verdana;fontSize=12;fontColor=#000000;align=center;" vertex="1" parent="1">
          <mxGeometry x="1150" y="1103.75" width="30" height="30" as="geometry" />
        </mxCell>
        <mxCell id="e0onVrtWX7vfqXptZFm4-230" style="edgeStyle=orthogonalEdgeStyle;html=1;labelBackgroundColor=none;endArrow=open;endSize=8;strokeColor=#ff0000;fontFamily=Verdana;fontSize=12;align=left;entryX=0;entryY=0.5;entryDx=0;entryDy=0;" edge="1" parent="1" target="e0onVrtWX7vfqXptZFm4-229" source="e0onVrtWX7vfqXptZFm4-226">
          <mxGeometry relative="1" as="geometry">
            <mxPoint x="1060" y="1128.75" as="targetPoint" />
            <mxPoint x="1058" y="1119.25" as="sourcePoint" />
          </mxGeometry>
        </mxCell>
      </root>
    </mxGraphModel>
  </diagram>
</mxfile>
